<svg width="252" height="182" xmlns="http://www.w3.org/2000/svg">
 <!-- Created with Method Draw - http://github.com/duopixel/Method-Draw/ -->

 <g>
  <title>background</title>
  <rect fill="#fff" id="canvas_background" height="184" width="254" y="-1" x="-1"/>
  <g display="none" overflow="visible" y="0" x="0" height="100%" width="100%" id="canvasGrid">
   <rect fill="url(#gridpattern)" stroke-width="0" y="1" x="1" height="600" width="800"/>
  </g>
 </g>
 <g>
  <title>Layer 1</title>
  <g stroke="null" id="svg_106">
   <rect stroke="null" transform="matrix(0.4973598918890974,0,0,0.5329542926388358,-908.8729087776368,-1044.4223349107515) " x="1842.84639" id="svg_14" fill="#ebebeb" height="0.25" width="500" y="2244.17617"/>
   <rect stroke="null" transform="matrix(0.4973598918890974,0,0,0.5329542926388358,-908.8729087776368,-1044.4223349107515) " id="svg_15" fill="#ebebeb" height="0.25" width="33.12" y="2260.26617" x="2259.62639"/>
   <rect stroke="null" transform="matrix(0.4973598918890974,0,0,0.5329542926388358,-908.8729087776368,-1044.4223349107515) " id="svg_16" fill="#ebebeb" height="0.25" width="8.69" y="2262.98617" x="2165.37639"/>
   <rect stroke="null" transform="matrix(0.4973598918890974,0,0,0.5329542926388358,-908.8729087776368,-1044.4223349107515) " id="svg_17" fill="#ebebeb" height="0.25" width="19.19" y="2250.98617" x="2239.43639"/>
   <rect stroke="null" transform="matrix(0.4973598918890974,0,0,0.5329542926388358,-908.8729087776368,-1044.4223349107515) " id="svg_18" fill="#ebebeb" height="0.25" width="43.19" y="2252.66617" x="1895.30639"/>
   <rect stroke="null" transform="matrix(0.4973598918890974,0,0,0.5329542926388358,-908.8729087776368,-1044.4223349107515) " id="svg_19" fill="#ebebeb" height="0.25" width="6.33" y="2252.66617" x="1947.40639"/>
   <rect stroke="null" transform="matrix(0.4973598918890974,0,0,0.5329542926388358,-908.8729087776368,-1044.4223349107515) " id="svg_20" fill="#ebebeb" height="0.25" width="93.68" y="2256.88617" x="1974.31639"/>
   <circle stroke="null" id="svg_23" fill="#f0f0f0" transform="matrix(0.4909341986051478,-0.08539300557308653,0.07968986572868555,0.5260687337614322,-958.2610895449492,-955.5525664610863) " r="44.07" cy="2218.88027" cx="2048.66995"/>
   <path stroke="null" id="svg_24" fill="#ebebeb" d="m140.97742,84.78852c4.14301,-3.55481 16.41288,-3.73068 22.21209,1.59886s13.76195,14.03269 16.58198,15.0986s12.21019,-2.84065 19.78498,-3.73068s10.55398,7.46136 13.36903,12.08207s5.80419,4.79659 7.13214,10.83496s3.80978,10.48321 7.62453,15.45567s14.9208,11.72499 16.07965,15.49298l-122.35053,0l-1.32298,-51.37679c3.29252,-3.55481 16.72124,-11.90087 20.88912,-15.45567z"/>
   <path stroke="null" id="svg_25" fill="#f5f5f5" d="m43.13181,105.21666c2.57135,-2.78202 10.88223,-4.61538 15.64197,-15.63155s20.39176,-33.9332 26.36007,-37.10428s12.56828,-17.05454 14.95561,-19.0318s5.47096,3.3736 6.29658,6.57133c2.14859,8.13288 12.434,31.26843 18.55152,35.70794s6.54526,14.03269 8.2512,19.54343s12.16542,8.70314 14.5428,15.80742s28.84687,40.54183 28.84687,40.54183l-157.95155,0c7.86823,-6.12364 14.60249,-35.68662 24.50492,-46.40433z"/>
   <path stroke="null" id="svg_26" fill="#f0f0f0" d="m100.33815,41.08627c0,2.73406 -0.77091,15.39705 -3.42681,18.47753s-0.31334,-3.78931 -4.79952,0s-6.46568,11.60241 -13.99073,14.33114s-6.84865,-4.14638 -3.203,-8.05827s7.95776,-10.77634 11.38954,-12.7909s14.03052,-20.36951 14.03052,-11.95949z"/>
   <path stroke="null" id="svg_27" fill="#f0f0f0" d="m81.7916,97.69667c3.57602,-5.29757 -12.48871,0.83141 -17.35289,-1.06591s-1.10414,-4.49813 -8.18157,2.13182s-19.33735,13.03073 -12.70755,15.2798s31.58733,-6.5127 38.242,-16.34571z"/>
   <path stroke="null" id="svg_28" fill="#f0f0f0" d="m173.3655,100.3348c-2.74543,-3.5175 -5.88377,-10.12613 -9.9472,-11.28264s-6.79394,-1.86534 -5.96832,0.79943s20.19281,15.95132 15.91552,10.48321z"/>
   <path stroke="null" id="svg_29" fill="#f0f0f0" d="m217.85434,119.25467c-0.70625,-2.46758 -2.87474,-2.39829 -4.77963,-6.31018s-4.72492,-10.56848 -9.37026,-10.83496s-11.99632,1.68947 -5.79922,6.66193s22.40606,19.09575 19.94911,10.48321z"/>
   <path stroke="null" id="svg_30" fill="#fafafa" d="m202.72227,46.22039l-94.49838,0c-11.93664,0 21.5506,-2.66477 39.95292,-7.10428s19.8944,-5.8625 26.02684,-1.06591s24.37063,-5.8625 33.15898,0.53295s11.10605,7.63724 -4.64037,7.63724z"/>
   <path stroke="null" id="svg_31" fill="#fafafa" d="m63.54951,40.34168c11.78743,0 34.28302,-1.0286 25.26091,-5.28691s-15.70165,4.26363 -19.64074,0.64487s-10.31524,-4.12507 -15.60715,-0.64487s-3.72025,-1.93462 -10.10138,0c-8.95248,2.71274 -37.6203,5.28691 -13.21983,5.28691l33.30819,0z"/>
   <path stroke="null" id="svg_32" fill="#fafafa" d="m177.39909,69.12499c9.00221,0 26.17605,-0.78877 19.28762,-4.03446s-11.98637,3.24569 -14.99043,0.49032s-7.87818,-3.14976 -11.93664,-0.49032s-2.83992,-1.47628 -7.71405,0c-6.8188,2.06786 -28.71756,4.03446 -10.09143,4.03446l25.44493,0z"/>
   <g stroke="null" transform="matrix(0.4973598918890974,0,0,0.5329542926388358,-908.8729087776368,-1044.4223349107515) " id="svg_10">
    <ellipse stroke="null" fill="#f5f5f5" ry="11.32" rx="193.89" cy="2278.01617" cx="2092.84639" id="svg_11"/>
   </g>
   <g stroke="null" transform="matrix(0.4973598918890974,0,0,0.5329542926388358,-908.8729087776368,-1044.4223349107515) " id="svg_9">
    <path stroke="null" id="svg_33" fill="#263238" d="m2078.90639,2275.87617c12.53,0 22.69,-20.12 22.69,-44.94s-10.16,-44.94 -22.69,-44.94l-29.06,0l0,89.88l29.06,0z"/>
    <ellipse stroke="null" id="svg_34" fill="#263238" ry="44.94" rx="22.69" cy="2230.93617" cx="2049.69639"/>
    <path stroke="null" id="svg_35" fill="#263238" d="m2245.27639,2275.87617c12.53,0 22.68,-20.12 22.68,-44.94s-10.11,-44.94 -22.68,-44.94l-29.11,0l0,89.88l29.11,0z"/>
    <ellipse stroke="null" id="svg_36" fill="#263238" ry="44.94" rx="22.69" cy="2230.93617" cx="2216.05639"/>
    <path stroke="null" id="svg_37" fill="#407BFF" d="m1930.18639,2253.24617l-15.54,-3.83a18.54,18.54 0 0 1 -12.22,-9.81l0,0a18.59,18.59 0 0 0 -4.31,-5.65l-3.82,-3.4a18.58,18.58 0 0 1 -6.14,-15.65l2.1,-22a18.58,18.58 0 0 1 13.22,-16.05l11.11,-3.28l40.08,-2.86l-24.48,82.53z"/>
    <path stroke="null" id="svg_38" fill="#263238" d="m1964.07639,2275.87617c12.53,0 22.69,-20.12 22.69,-44.94s-10.16,-44.94 -22.69,-44.94l-29.1,0l0,89.88l29.1,0z"/>
    <ellipse stroke="null" id="svg_39" fill="#263238" ry="44.94" rx="22.69" cy="2230.93617" cx="1934.86639"/>
    <ellipse stroke="null" id="svg_40" fill="#407BFF" ry="35.52" rx="15.92" cy="2230.93617" cx="1934.86639"/>
    <path stroke="null" id="svg_41" fill="#407BFF" d="m2165.09639,2253.24617l39.18,-87.56s-58.62,-43.64 -133,-43.64c-120.55,0 -116.41,16.25 -156.75,51.53l17.61,12.42c31.33,0 33.94,49.66 38.95,63.63a5.43,5.43 0 0 0 5.12,3.62l188.89,0"/>
    <path stroke="null" id="svg_42" fill="#263238" d="m2130.44639,2275.87617c12.53,0 22.68,-20.12 22.68,-44.94s-10.15,-44.94 -22.68,-44.94l-29.11,0l0,89.88l29.11,0z"/>
    <ellipse stroke="null" id="svg_43" fill="#263238" ry="44.94" rx="22.69" cy="2230.93617" cx="2101.22639"/>
    <ellipse stroke="null" id="svg_44" fill="#407BFF" ry="35.52" rx="15.92" cy="2230.93617" cx="2101.22639"/>
    <path stroke="null" id="svg_45" fill="#407BFF" d="m2141.71639,2246.01617c-3.61,-16.4 -20.87,-60 -41.56,-60l-22.42,-20.36l126.54,0c8.76,0 47.67,5.38 69.72,20.31c17.81,12.06 20,30.37 22.56,57.12c0.53,5.46 -4.25,10.15 -10.29,10.16c-50.7,0 -112.06,0.19 -134.4,0.26c-4.93,0.05 -9.18,-3.1 -10.15,-7.49z"/>
    <path stroke="null" id="svg_46" fill="#fff" opacity="0.8" d="m2195.12639,2165.68617l-82.49,0a11.68,11.68 0 0 1 -9.69,-5.09c-9.18,-13.6 -25.43,-27.38 -37.34,-33.91c83.4,0 129.52,39 129.52,39z"/>
    <path stroke="null" id="svg_47" fill="#fff" opacity="0.8" d="m2063.56639,2130.77617c10,7.24 21.38,18.46 27.77,29.61a3.52,3.52 0 0 1 -3,5.29l-135.19,0c-14.34,0 -9.58,-35.72 65.33,-38.4c7.06,-0.61 23.52,-0.63 32.62,-0.59a21.41,21.41 0 0 1 12.47,4.09z"/>
    <path stroke="null" id="svg_48" fill="#263238" d="m2156.01639,2233.77617l43.33,3.27a2.68,2.68 0 0 1 2.48,2.68l0,3a2.68,2.68 0 0 1 -2.68,2.68l-43.3,0a2.69,2.69 0 0 1 -2.69,-2.68l0,-6.23a2.69,2.69 0 0 1 2.86,-2.72z"/>
    <path stroke="null" id="svg_49" fill="#263238" d="m2293.74639,2234.37617l-11.9,2.4a2.68,2.68 0 0 0 -2.16,2.63l0,3.25a2.68,2.68 0 0 0 2.69,2.68l12.6,0a2.68,2.68 0 0 0 2.67,-3l-0.67,-5.64a2.69,2.69 0 0 0 -3.23,-2.32z"/>
    <path stroke="null" id="svg_50" fill="#fff" opacity="0.8" d="m2191.67639,2183.35617l-60.5,-2.94s-0.62,10.72 21.8,13a59,59 0 0 0 38.7,-10.06z"/>
    <path stroke="null" id="svg_51" opacity="0.3" d="m1890.24639,2192.89617a18.42,18.42 0 0 1 1.25,-5.12l4.1,-0.12s0.19,15.73 -5.75,14.74a2.92,2.92 0 0 1 -0.49,-0.12l0.89,-9.38z"/>
    <path stroke="null" id="svg_52" fill="#fff" opacity="0.8" d="m2268.03639,2182.39617a69,69 0 0 1 5.95,3.59a42.76,42.76 0 0 1 7.95,6.88a23.87,23.87 0 0 1 -2.57,0.58c-13.43,2.31 -23.19,-10.09 -23.19,-10.09l11.86,-0.96z"/>
    <path stroke="null" id="svg_53" fill="#263238" d="m2210.41639,2200.25617l42.81,0a7.35,7.35 0 0 1 4.19,1.34l7.48,5.25a7.49,7.49 0 0 1 3.15,5.11l1.91,14.17a6.38,6.38 0 0 1 -6.39,7.36l-45.78,0a7.53,7.53 0 0 1 -6.6,-4.1l-8.55,-16.67a6.74,6.74 0 0 1 0.54,-7.27l2.14,-2.75a6.39,6.39 0 0 1 5.1,-2.44z"/>
    <path stroke="null" id="svg_54" opacity="0.1" d="m1984.74639,2234.82617l83.72,0a2,2 0 0 1 2,2.17l-0.43,4.87a2,2 0 0 1 -2,1.82l-83.73,0a2,2 0 0 1 -2,-2.17l0.43,-4.88a2,2 0 0 1 2.01,-1.81z"/>
    <polygon stroke="null" id="svg_55" fill="#407BFF" points="2011.4363977909088,2126.686636209488 2016.4464075565338,2125.716421365738 2006.1964075565338,2170.716421365738 2001.3963587284088,2170.716421365738 2011.4363977909088,2126.686636209488 "/>
    <path stroke="null" id="svg_56" fill="#263238" d="m2029.72639,2175.77617l-17.15,0l-0.44,1.8a2.56,2.56 0 0 0 2.55,3.38l10.37,0a4.6,4.6 0 0 0 4.22,-3.38l0.45,-1.8z"/>
    <path stroke="null" id="svg_57" fill="#263238" d="m1970.73639,2175.77617l-17.14,0l-0.44,1.8a2.56,2.56 0 0 0 2.55,3.38l10.37,0a4.6,4.6 0 0 0 4.22,-3.38l0.44,-1.8z"/>
    <path stroke="null" id="svg_58" opacity="0.1" d="m2004.30639,2229.00617a0.57,0.57 0 0 1 -0.57,-0.56l-1.26,-58.92a0.59,0.59 0 0 1 0.56,-0.59l0,0a0.57,0.57 0 0 1 0.57,0.56l1.24,58.93a0.58,0.58 0 0 1 -0.56,0.58l0.02,0z"/>
   </g>
   <g stroke="null" transform="matrix(0.4973598918890974,0,0,0.5329542926388358,-908.8729087776368,-1044.4223349107515) " id="svg_8">
    <polygon stroke="null" id="svg_59" fill="#ff8b7b" points="2038.2463343143463,2271.956411600113 2032.3364222049713,2271.866567850113 2030.6364710330963,2258.166372537613 2036.5463831424713,2258.256460428238 2038.2463343143463,2271.956411600113 "/>
    <polygon stroke="null" id="svg_60" fill="#ff8b7b" points="2002.2762415409088,2271.816519021988 1996.8763391971588,2268.806509256363 2000.9063684940338,2256.096548318863 2006.3062708377838,2259.106558084488 2002.2762415409088,2271.816519021988 "/>
    <path stroke="null" id="svg_61" fill="#263238" d="m1996.36639,2268.09617l6.26,3.56a0.5,0.5 0 0 1 0.24,0.59l-1.58,5.15a0.86,0.86 0 0 1 -1.27,0.48c-2,-1.17 -3.4,-2.13 -5.94,-3.57c-1.56,-0.88 -6.36,-3.39 -8.51,-4.61s-1.23,-3.52 -0.24,-3.21c4.45,1.38 8.11,1.88 10,1.46a1.45,1.45 0 0 1 1.04,0.15z"/>
    <path stroke="null" id="svg_62" fill="#263238" d="m2032.21639,2271.18617l6.45,0.1a0.51,0.51 0 0 1 0.5,0.41l1.08,5.27a0.85,0.85 0 0 1 -0.86,1c-2.33,-0.07 -5.69,-0.26 -8.61,-0.31c-3.42,-0.05 -6.38,0.09 -10.39,0c-2.42,0 -3,-2.5 -2,-2.71c4.64,-0.94 8.41,-1 12.44,-3.39a2.72,2.72 0 0 1 1.39,-0.37z"/>
    <path stroke="null" id="svg_63" fill="#ff8b7b" d="m2029.42639,2098.70617a123.91,123.91 0 0 1 -10.58,7.76c-1.84,1.19 -3.71,2.37 -5.7,3.45a38.24,38.24 0 0 1 -6.53,2.93a17.18,17.18 0 0 1 -2.06,0.52c-0.38,0.07 -0.82,0.12 -1.24,0.16a8.58,8.58 0 0 1 -1.43,0a7.82,7.82 0 0 1 -3,-0.87a8.07,8.07 0 0 1 -2.34,-1.88a11.21,11.21 0 0 1 -2.18,-4.15a20.68,20.68 0 0 1 -0.69,-3.76a42.31,42.31 0 0 1 1.29,-13.53l4.39,0.61a57.91,57.91 0 0 0 1.16,11.83a13.51,13.51 0 0 0 0.79,2.4a3.7,3.7 0 0 0 0.91,1.37c0.12,0.08 0.17,0.07 0.18,0s0,-0.05 0,-0.07a8.49,8.49 0 0 0 1.48,-0.47a34.35,34.35 0 0 0 4.91,-2.61c1.68,-1 3.37,-2.17 5,-3.35c3.34,-2.34 6.71,-4.86 9.92,-7.34l5.72,7z"/>
    <path stroke="null" id="svg_64" fill="#407BFF" d="m2031.22639,2095.98617c-2.69,6.07 -13.06,12.35 -18.81,15c-1.7,0.78 -1.48,3.06 -2.49,2.07c0,0 -4.43,-8.13 -4.43,-9.79s1.47,-0.67 2.67,-1.79c4.32,-4 13.36,-12.79 19,-13.76c7.38,-1.3 6.58,2.61 4.06,8.27z"/>
    <path stroke="null" id="svg_65" fill="#263238" d="m2006.11639,2102.18617c-0.57,-0.84 -2.93,1.36 -3.68,2.28s1.31,4.26 1.93,6s-0.6,3.59 1.3,3.86c1,0.14 3.85,-0.23 4.4,-1c1.29,-1.65 -2.58,-9.12 -3.95,-11.14z"/>
    <path stroke="null" id="svg_66" opacity="0.2" d="m2019.68639,2106.98617c4.84,-3.05 9.8,-7.07 11.55,-11c0.11,-0.27 0.24,-0.52 0.34,-0.78l0.1,-1c-6.57,1.12 -11.03,7.76 -11.99,12.78z"/>
    <path stroke="null" id="svg_67" fill="#ff8b7b" d="m1998.50639,2091.77617l3.81,-5.65l-6.22,-2.54s-3.52,4 -1,7.49l3.41,0.7z"/>
    <polygon stroke="null" id="svg_68" fill="#ff8b7b" points="2003.9163782596588,2079.986440896988 1998.1964075565338,2079.796499490738 1996.0963099002838,2083.536489725113 2002.3162806034088,2086.076528787613 2003.9163782596588,2079.986440896988 "/>
    <polygon stroke="null" id="svg_69" opacity="0.2" points="2030.6364710330963,2258.166372537613 2031.5163538455963,2265.226431131363 2037.4265100955963,2265.326528787613 2036.5463831424713,2258.266470193863 2030.6364710330963,2258.166372537613 "/>
    <polygon stroke="null" id="svg_70" opacity="0.2" points="2006.3062708377838,2259.106558084488 2000.9063684940338,2256.096548318863 1998.8363001346588,2262.656606912613 2004.2264368534088,2265.666616678238 2006.3062708377838,2259.106558084488 "/>
    <path stroke="null" id="svg_71" fill="#407BFF" d="m2060.17639,2089.85617c-6.37,22.44 -5.08,46.25 -5.66,51.07c-4.62,-0.33 -22,-1.63 -31.5,-2.34c-3,-33.75 4.14,-50.89 4.14,-50.89s2,-0.39 4.78,-0.67c0.86,-0.09 1.79,-0.17 2.76,-0.22c0.54,0 1.08,-0.05 1.63,-0.06a116.72,116.72 0 0 1 13.4,1c0.84,0.1 1.69,0.23 2.52,0.36s1.52,0.27 2.23,0.41c3.21,0.64 5.7,1.34 5.7,1.34z"/>
    <path stroke="null" id="svg_72" fill="#263238" d="m2036.32639,2086.77617c-2.65,1.42 -3.42,6.62 1.71,6.82s10.22,-3.41 11.69,-5.83l-13.4,-0.99z"/>
    <path stroke="null" id="svg_73" opacity="0.2" d="m2053.44639,2099.48617c-0.56,2.17 0.08,12.07 2.35,14.52c0.31,-3.17 0.72,-6.49 1.27,-9.87l-3.62,-4.65z"/>
    <path stroke="null" id="svg_74" fill="#ff8b7b" d="m2049.51639,2072.56617c-1.16,4.24 -2.59,12.07 0.21,15.17c-2.52,2.16 -5.41,3.67 -10.54,3.47s-4.34,-2.7 -2.86,-4.46c4.9,-0.79 5,-4.37 4.45,-7.78l8.74,-6.4z"/>
    <path stroke="null" id="svg_75" opacity="0.2" d="m2045.95639,2075.17617l-5.18,3.79a14.26,14.26 0 0 1 0.24,2.41c1.85,-0.13 4.53,-2 4.86,-3.87a6.52,6.52 0 0 0 0.08,-2.33z"/>
    <path stroke="null" id="svg_76" fill="#263238" d="m2036.17639,2070.93617s-3.62,-5.09 -2.56,-9.07c1.36,-5.09 9.56,1.15 2.56,9.07z"/>
    <path stroke="null" id="svg_77" fill="#ff8b7b" d="m2050.51639,2066.11617c-0.8,5.81 -1,9.25 -4.13,12c-4.77,4.18 -11.77,1 -12.73,-5c-0.87,-5.33 0.57,-13.94 6.46,-15.83a8,8 0 0 1 10.4,8.83z"/>
    <path stroke="null" id="svg_78" fill="#263238" d="m2036.76639,2072.25617c0,0.89 -0.82,1.1 -1.48,1.5a3.92,3.92 0 0 0 -1.13,1.21s-0.85,-0.28 -0.5,-1.79s3.11,-1.75 3.11,-0.92z"/>
    <path stroke="null" id="svg_79" fill="#263238" d="m2037.17639,2072.28617c0,1.53 1.69,1.32 3,1.74a5.44,5.44 0 0 1 2.68,1.86a2.18,2.18 0 0 0 -0.37,-2.34c-1.64,-2.15 -5.31,-2.09 -5.31,-1.26z"/>
    <path stroke="null" id="svg_80" fill="#263238" d="m2046.02639,2060.86617c-3.64,1.08 -13.85,2.21 -12.6,-3c1.74,-7.29 6.34,-3.49 7,-2.45c2.93,-2.12 15.86,-0.27 13.28,3.92c2.81,0.43 4.44,3.49 2.42,5s-4.47,7.67 -5.82,7.49a18.12,18.12 0 0 1 -4.74,-1.33l2.78,-3.72s-3.37,-3.2 -2.32,-5.91z"/>
    <path stroke="null" id="svg_81" fill="#263238" d="m2052.39639,2059.97617c2,-0.49 3.87,-0.71 5.49,0.79c-0.12,-2.52 -3.57,-2.87 -5.49,-0.79z"/>
    <path stroke="null" id="svg_82" fill="#ff8b7b" d="m2052.66639,2072.77617a5.53,5.53 0 0 1 -3.64,2.19c-1.94,0.28 -2.65,-1.51 -1.9,-3.2c0.67,-1.53 2.49,-3.51 4.33,-3a2.51,2.51 0 0 1 1.21,4.01z"/>
    <path stroke="null" id="svg_83" fill="#407BFF" d="m2029.31639,2263.83617l10,0.15s-5.77,-39.51 -4.87,-57.89c0.27,-5.59 -0.63,-13.41 0.85,-21.79c1.87,-10.57 2.77,-14.78 5.18,-28.13c1.72,-9.52 3.25,-16 3.25,-16l-20.71,-1.54s-6.77,47.61 -6.57,65.64c0.21,18.69 12.87,59.56 12.87,59.56z"/>
    <path stroke="null" id="svg_84" opacity="0.6" d="m2029.31639,2263.83617l10,0.15s-5.77,-39.51 -4.87,-57.89c0.27,-5.59 -0.63,-13.41 0.85,-21.79c1.87,-10.57 2.77,-14.78 5.18,-28.13c1.72,-9.52 3.25,-16 3.25,-16l-20.71,-1.54s-6.77,47.61 -6.57,65.64c0.21,18.69 12.87,59.56 12.87,59.56z"/>
    <path stroke="null" id="svg_85" opacity="0.2" d="m2035.29639,2184.30617a71.29,71.29 0 0 0 -0.87,13.26c-1.72,4.86 -3.22,9.47 -4.27,13.57c-1.83,7.17 -4.73,18.05 -7.55,28.5c-3.07,-12.24 -6.06,-26.39 -6.15,-35.41l18.84,-19.92z"/>
    <path stroke="null" id="svg_86" fill="#407BFF" d="m2034.18639,2139.41617s-14.88,37.6 -20.52,54c-6.18,17.92 -16.15,66.29 -16.15,66.29l9.41,5.33s14.66,-39.87 20.73,-57.32c6.92,-19.88 26,-51.29 26.86,-66.74l-20.33,-1.56z"/>
    <path stroke="null" id="svg_87" opacity="0.6" d="m2034.18639,2139.41617s-14.88,37.6 -20.52,54c-6.18,17.92 -16.15,66.29 -16.15,66.29l9.41,5.33s14.66,-39.87 20.73,-57.32c6.92,-19.88 26,-51.29 26.86,-66.74l-20.33,-1.56z"/>
    <polygon stroke="null" id="svg_88" fill="#407BFF" points="1996.2762415409088,2259.226431131363 2007.3563196659088,2265.516470193863 2009.2362024784088,2262.206655740738 1996.9664270877838,2254.966421365738 1996.2762415409088,2259.226431131363 "/>
    <polygon stroke="null" id="svg_89" fill="#407BFF" points="2028.0562708377838,2264.046499490738 2039.9763147830963,2264.236440896988 2040.0363733768463,2260.386587381363 2026.7164270877838,2259.966421365738 2028.0562708377838,2264.046499490738 "/>
    <path stroke="null" id="svg_90" fill="#263238" d="m2042.73639,2067.08617c0,0.48 -0.32,0.84 -0.63,0.82s-0.53,-0.43 -0.49,-0.9s0.31,-0.84 0.62,-0.82s0.54,0.43 0.5,0.9z"/>
    <path stroke="null" id="svg_91" fill="#263238" d="m2036.41639,2066.68617c0,0.48 -0.31,0.84 -0.62,0.82s-0.54,-0.43 -0.5,-0.9s0.31,-0.84 0.62,-0.82s0.54,0.43 0.5,0.9z"/>
    <path stroke="null" id="svg_92" fill="#ff5652" d="m2037.84639,2067.05617a17,17 0 0 1 -2.58,3.89a2.75,2.75 0 0 0 2.24,0.6l0.34,-4.49z"/>
    <path stroke="null" id="svg_93" fill="#263238" d="m2037.32639,2074.60617a3.89,3.89 0 0 0 2.8,-1.36a0.14,0.14 0 0 0 0,-0.2a0.14,0.14 0 0 0 -0.19,0a3.78,3.78 0 0 1 -3.18,1.24a0.15,0.15 0 0 0 -0.15,0.13a0.13,0.13 0 0 0 0.13,0.15a4.32,4.32 0 0 0 0.59,0.04z"/>
    <path stroke="null" id="svg_94" fill="#263238" d="m2043.73639,2065.47617a0.33,0.33 0 0 0 0.13,0a0.28,0.28 0 0 0 0.08,-0.39a2.77,2.77 0 0 0 -2.18,-1.32a0.27,0.27 0 0 0 -0.28,0.28a0.28,0.28 0 0 0 0.28,0.28l0,0a2.22,2.22 0 0 1 1.71,1.06a0.28,0.28 0 0 0 0.26,0.09z"/>
    <path stroke="null" id="svg_95" fill="#263238" d="m2034.07639,2064.57617a0.3,0.3 0 0 0 0.25,-0.1a2.21,2.21 0 0 1 1.85,-0.81a0.28,0.28 0 0 0 0.31,-0.24a0.28,0.28 0 0 0 -0.24,-0.32a2.78,2.78 0 0 0 -2.34,1a0.28,0.28 0 0 0 0,0.4a0.34,0.34 0 0 0 0.17,0.07z"/>
    <path stroke="null" id="svg_96" fill="#407BFF" d="m1994.15639,2268.03617a6.38,6.38 0 0 0 1.45,0.57a0.12,0.12 0 0 0 0.14,0a0.16,0.16 0 0 0 0,-0.16c-0.12,-0.22 -1.2,-2.18 -1.94,-2.21a0.45,0.45 0 0 0 -0.4,0.23a0.82,0.82 0 0 0 -0.11,0.78a1.82,1.82 0 0 0 0.86,0.79zm1.19,0.2c-1,-0.32 -1.62,-0.73 -1.77,-1.12a0.57,0.57 0 0 1 0.08,-0.54a0.18,0.18 0 0 1 0.16,-0.1c0.38,0.02 1.08,0.99 1.53,1.76z"/>
    <path stroke="null" id="svg_97" fill="#407BFF" d="m1995.57639,2268.59617l0.07,0a0.13,0.13 0 0 0 0.12,-0.08c0,-0.07 0.75,-1.62 0.43,-2.44a0.78,0.78 0 0 0 -0.43,-0.46l0,0a0.48,0.48 0 0 0 -0.57,0.1c-0.43,0.52 0,2.22 0.33,2.81a0.12,0.12 0 0 0 0.05,0.07zm0.14,-2.67a0.5,0.5 0 0 1 0.22,0.27a3.37,3.37 0 0 1 -0.31,1.95c-0.3,-0.7 -0.47,-1.92 -0.21,-2.22c0,0 0.07,-0.1 0.24,0l0,0l0.06,0z"/>
    <path stroke="null" id="svg_98" fill="#407BFF" d="m2031.62639,2271.98617a0.12,0.12 0 0 0 0.09,-0.11a0.12,0.12 0 0 0 -0.07,-0.14c-0.26,-0.15 -2.62,-1.39 -3.34,-1a0.46,0.46 0 0 0 -0.24,0.37l0,0a0.82,0.82 0 0 0 0.25,0.69c0.64,0.58 2.34,0.37 3.29,0.2l0.02,-0.01zm-3.14,-1a5.76,5.76 0 0 1 2.66,0.82a3.76,3.76 0 0 1 -2.64,-0.2a0.52,0.52 0 0 1 -0.16,-0.45a0.16,0.16 0 0 1 0.09,-0.15l0.05,-0.02z"/>
    <path stroke="null" id="svg_99" fill="#407BFF" d="m2031.62639,2271.98617l0,0a0.16,0.16 0 0 0 0.06,-0.13a4,4 0 0 0 -0.89,-2.29a1,1 0 0 0 -0.77,-0.25l0,0c-0.38,0 -0.5,0.22 -0.52,0.38c-0.12,0.67 1.27,2 2,2.3a0.17,0.17 0 0 0 0.12,-0.01zm-1.68,-2.38l0.15,0l0,0a0.73,0.73 0 0 1 0.56,0.18a3.23,3.23 0 0 1 0.75,1.84c-0.72,-0.45 -1.66,-1.47 -1.59,-1.87a0.17,0.17 0 0 1 0.13,-0.15zm0.13,-0.16z"/>
    <path stroke="null" id="svg_100" fill="#ff8b7b" d="m2061.63639,2093.42617c1.3,2.42 2.42,4.81 3.58,7.24s2.17,4.91 3.19,7.41s1.94,5 2.79,7.68l0.61,2l0.54,2c0.18,0.68 0.32,1.4 0.48,2.09l0.12,0.54l0.11,0.72a13.07,13.07 0 0 1 0.13,1.32a27.48,27.48 0 0 1 -0.19,4.53c-0.16,1.42 -0.36,2.79 -0.6,4.14c-0.49,2.7 -1.09,5.33 -1.76,7.93a156.18,156.18 0 0 1 -4.79,15.3l-4.27,-1.18c0.89,-5.12 1.75,-10.31 2.51,-15.42c0.37,-2.55 0.71,-5.1 0.94,-7.62c0.12,-1.25 0.21,-2.49 0.25,-3.7a22.51,22.51 0 0 0 -0.09,-3.35c0,-0.21 -0.05,-0.49 -0.1,-0.63l-0.06,-0.26l-0.12,-0.42c-0.18,-0.57 -0.32,-1.14 -0.52,-1.72l-0.59,-1.74l-0.65,-1.75c-0.89,-2.35 -1.89,-4.69 -2.9,-7s-2.13,-4.68 -3.24,-7s-2.25,-4.68 -3.35,-6.94l7.98,-4.17z"/>
    <path stroke="null" id="svg_101" fill="#407BFF" d="m2060.16639,2089.86617c4.24,1.32 9.85,18.9 12.07,26.38c1.41,1.27 0.7,3.59 0.7,3.59l-8.63,3.81c-2,-1 -3.24,-3.09 -2.49,-4.12c-4.52,-8.53 -8.07,-14.91 -9.78,-20c-2.53,-7.54 1.61,-11.75 8.13,-9.66z"/>
    <path stroke="null" id="svg_102" fill="#263238" d="m2062.19639,2121.55617c-0.87,0.52 1.8,3.26 2.66,4.06s3.73,-1.29 5.52,-1.81s3.55,0.82 3.93,-1.06c0.21,-1 0,-3.86 -0.69,-4.46c-1.63,-1.38 -9.32,2.03 -11.42,3.27z"/>
    <path stroke="null" id="svg_103" fill="#ff8b7b" d="m2062.69639,2152.62617l-4.61,3.84l5.74,4.14s3.77,-4 2.08,-6.38l-3.21,-1.6z"/>
    <polygon stroke="null" id="svg_104" fill="#ff8b7b" points="2055.456417322159,2161.836538553238 2061.136348962784,2164.596548318863 2063.826290369034,2160.606313943863 2058.086300134659,2156.466421365738 2055.456417322159,2161.836538553238 "/>
   </g>
  </g>
 </g>
</svg>