<svg xmlns="http://www.w3.org/2000/svg" viewBox="0 0 500 500"><g id="freepik--background-complete--inject-3"><rect y="382.4" width="500" height="0.25" style="fill:#ebebeb"></rect><rect x="416.78" y="398.49" width="33.12" height="0.25" style="fill:#ebebeb"></rect><rect x="322.53" y="401.21" width="8.69" height="0.25" style="fill:#ebebeb"></rect><rect x="396.59" y="389.21" width="19.19" height="0.25" style="fill:#ebebeb"></rect><rect x="52.46" y="390.89" width="43.19" height="0.25" style="fill:#ebebeb"></rect><rect x="104.56" y="390.89" width="6.33" height="0.25" style="fill:#ebebeb"></rect><rect x="131.47" y="395.11" width="93.68" height="0.25" style="fill:#ebebeb"></rect><path d="M237,337.8H43.91a5.71,5.71,0,0,1-5.7-5.71V60.66A5.71,5.71,0,0,1,43.91,55H237a5.71,5.71,0,0,1,5.71,5.71V332.09A5.71,5.71,0,0,1,237,337.8ZM43.91,55.2a5.46,5.46,0,0,0-5.45,5.46V332.09a5.46,5.46,0,0,0,5.45,5.46H237a5.47,5.47,0,0,0,5.46-5.46V60.66A5.47,5.47,0,0,0,237,55.2Z" style="fill:#ebebeb"></path><path d="M453.31,337.8H260.21a5.72,5.72,0,0,1-5.71-5.71V60.66A5.72,5.72,0,0,1,260.21,55h193.1A5.71,5.71,0,0,1,459,60.66V332.09A5.71,5.71,0,0,1,453.31,337.8ZM260.21,55.2a5.47,5.47,0,0,0-5.46,5.46V332.09a5.47,5.47,0,0,0,5.46,5.46h193.1a5.47,5.47,0,0,0,5.46-5.46V60.66a5.47,5.47,0,0,0-5.46-5.46Z" style="fill:#ebebeb"></path><circle cx="256.76" cy="231.15" r="44.07" transform="translate(-33.71 44.11) rotate(-9.22)" style="fill:#f0f0f0"></circle><path d="M268,257c8.33-6.67,33-7,44.66,3s27.67,26.33,33.34,28.33,24.55-5.33,39.78-7,21.22,14,26.88,22.67,11.67,9,14.34,20.33,7.66,19.67,15.33,29,30,22,32.33,29.07h-246L226,286C232.62,279.33,259.62,263.67,268,257Z" style="fill:#ebebeb"></path><path d="M71.27,295.33c5.17-5.22,21.88-8.66,31.45-29.33s41-63.67,53-69.62,25.27-32,30.07-35.71,11,6.33,12.66,12.33c4.32,15.26,25,58.67,37.3,67s13.16,26.33,16.59,36.67,24.46,16.33,29.24,29.66,58,76.07,58,76.07H22C37.82,370.91,51.36,315.44,71.27,295.33Z" style="fill:#f5f5f5"></path><path d="M186.29,175c0,5.13-1.55,28.89-6.89,34.67s-.63-7.11-9.65,0-13,21.77-28.13,26.89-13.77-7.78-6.44-15.12,16-20.22,22.9-24S186.29,159.22,186.29,175Z" style="fill:#f0f0f0"></path><path d="M149,281.22c7.19-9.94-25.11,1.56-34.89-2s-2.22-8.44-16.45,4-38.88,24.45-25.55,28.67S135.62,299.67,149,281.22Z" style="fill:#f0f0f0"></path><path d="M333.12,286.17c-5.52-6.6-11.83-19-20-21.17s-13.66-3.5-12,1.5S341.72,296.43,333.12,286.17Z" style="fill:#f0f0f0"></path><path d="M422.57,321.67c-1.42-4.63-5.78-4.5-9.61-11.84s-9.5-19.83-18.84-20.33S370,292.67,382.46,302,427.51,337.83,422.57,321.67Z" style="fill:#f0f0f0"></path><path d="M404.5,109.45h-190c-24,0,43.33-5,80.33-13.33s40-11,52.33-2,49-11,66.67,1S436.16,109.45,404.5,109.45Z" style="fill:#fafafa"></path><path d="M141.15,141.61c23.7,0,68.93-1.93,50.79-9.92s-31.57,8-39.49,1.21-20.74-7.74-31.38-1.21-7.48-3.63-20.31,0c-18,5.09-75.64,9.92-26.58,9.92Z" style="fill:#fafafa"></path><path d="M341.23,227.61c18.1,0,52.63-1.48,38.78-7.57s-24.1,6.09-30.14.92-15.84-5.91-24-.92-5.71-2.77-15.51,0c-13.71,3.88-57.74,7.57-20.29,7.57Z" style="fill:#fafafa"></path></g><g id="freepik--Shadow--inject-3"><ellipse id="freepik--path--inject-3" cx="250" cy="416.24" rx="193.89" ry="11.32" style="fill:#f5f5f5"></ellipse></g><g id="freepik--Car--inject-3"><path d="M236.06,414.1c12.53,0,22.69-20.12,22.69-44.94s-10.16-44.94-22.69-44.94H207V414.1Z" style="fill:#263238"></path><ellipse cx="206.85" cy="369.16" rx="22.69" ry="44.94" style="fill:#263238"></ellipse><path d="M402.43,414.1c12.53,0,22.68-20.12,22.68-44.94S415,324.22,402.43,324.22H373.32V414.1Z" style="fill:#263238"></path><ellipse cx="373.21" cy="369.16" rx="22.69" ry="44.94" style="fill:#263238"></ellipse><path d="M87.34,391.47,71.8,387.64a18.54,18.54,0,0,1-12.22-9.81v0a18.59,18.59,0,0,0-4.31-5.65l-3.82-3.4a18.58,18.58,0,0,1-6.14-15.65l2.1-22a18.58,18.58,0,0,1,13.22-16.05l11.11-3.28,40.08-2.86Z" style="fill:#407BFF"></path><path d="M121.23,414.1c12.53,0,22.69-20.12,22.69-44.94s-10.16-44.94-22.69-44.94H92.13V414.1Z" style="fill:#263238"></path><ellipse cx="92.02" cy="369.16" rx="22.69" ry="44.94" style="fill:#263238"></ellipse><ellipse cx="92.02" cy="369.16" rx="15.92" ry="35.52" style="fill:#407BFF"></ellipse><path d="M322.25,391.47l39.18-87.56s-58.62-43.64-133-43.64c-120.55,0-116.41,16.25-156.75,51.53l17.61,12.42c31.33,0,33.94,49.66,38.95,63.63a5.43,5.43,0,0,0,5.12,3.62H322.25" style="fill:#407BFF"></path><path d="M287.6,414.1c12.53,0,22.68-20.12,22.68-44.94s-10.15-44.94-22.68-44.94H258.49V414.1Z" style="fill:#263238"></path><ellipse cx="258.38" cy="369.16" rx="22.69" ry="44.94" style="fill:#263238"></ellipse><ellipse cx="258.38" cy="369.16" rx="15.92" ry="35.52" style="fill:#407BFF"></ellipse><path d="M298.87,384.24c-3.61-16.4-20.87-60-41.56-60l-22.42-20.36H361.43c8.76,0,47.67,5.38,69.72,20.31,17.81,12.06,20,30.37,22.56,57.12.53,5.46-4.25,10.15-10.29,10.16-50.7,0-112.06.19-134.4.26C304.09,391.78,299.84,388.63,298.87,384.24Z" style="fill:#407BFF"></path><path d="M352.28,303.91H269.79a11.68,11.68,0,0,1-9.69-5.09c-9.18-13.6-25.43-27.38-37.34-33.91C306.16,264.91,352.28,303.91,352.28,303.91Z" style="fill:#fff;opacity:0.8"></path><path d="M220.72,269c10,7.24,21.38,18.46,27.77,29.61a3.52,3.52,0,0,1-3,5.29H110.3c-14.34,0-9.58-35.72,65.33-38.4,7.06-.61,23.52-.63,32.62-.59A21.41,21.41,0,0,1,220.72,269Z" style="fill:#fff;opacity:0.8"></path><path d="M313.17,372l43.33,3.27a2.68,2.68,0,0,1,2.48,2.68v3a2.68,2.68,0,0,1-2.68,2.68H313a2.69,2.69,0,0,1-2.69-2.68v-6.23A2.69,2.69,0,0,1,313.17,372Z" style="fill:#263238"></path><path d="M450.9,372.6,439,375a2.68,2.68,0,0,0-2.16,2.63v3.25a2.68,2.68,0,0,0,2.69,2.68h12.6a2.68,2.68,0,0,0,2.67-3l-.67-5.64A2.69,2.69,0,0,0,450.9,372.6Z" style="fill:#263238"></path><path d="M348.83,321.58l-60.5-2.94s-.62,10.72,21.8,13A59,59,0,0,0,348.83,321.58Z" style="fill:#fff;opacity:0.8"></path><path d="M47.4,331.12A18.42,18.42,0,0,1,48.65,326l4.1-.12s.19,15.73-5.75,14.74a2.92,2.92,0,0,1-.49-.12Z" style="opacity:0.30000000000000004"></path><path d="M425.19,320.62a69,69,0,0,1,5.95,3.59,42.76,42.76,0,0,1,7.95,6.88,23.87,23.87,0,0,1-2.57.58c-13.43,2.31-23.19-10.09-23.19-10.09Z" style="fill:#fff;opacity:0.8"></path><path d="M367.57,338.48h42.81a7.35,7.35,0,0,1,4.19,1.34l7.48,5.25a7.49,7.49,0,0,1,3.15,5.11l1.91,14.17a6.38,6.38,0,0,1-6.39,7.36H374.94a7.53,7.53,0,0,1-6.6-4.1l-8.55-16.67a6.74,6.74,0,0,1,.54-7.27l2.14-2.75A6.39,6.39,0,0,1,367.57,338.48Z" style="fill:#263238"></path><path d="M141.9,373.05h83.72a2,2,0,0,1,2,2.17l-.43,4.87a2,2,0,0,1-2,1.82H141.46a2,2,0,0,1-2-2.17l.43-4.88A2,2,0,0,1,141.9,373.05Z" style="opacity:0.1"></path><polygon points="168.59 264.91 173.6 263.94 163.35 308.94 158.55 308.94 168.59 264.91" style="fill:#407BFF"></polygon><path d="M186.88,314H169.73l-.44,1.8a2.56,2.56,0,0,0,2.55,3.38h10.37a4.6,4.6,0,0,0,4.22-3.38Z" style="fill:#263238"></path><path d="M127.89,314H110.75l-.44,1.8a2.56,2.56,0,0,0,2.55,3.38h10.37a4.6,4.6,0,0,0,4.22-3.38Z" style="fill:#263238"></path><path d="M161.46,367.23a.57.57,0,0,1-.57-.56l-1.26-58.92a.59.59,0,0,1,.56-.59h0a.57.57,0,0,1,.57.56L162,366.65a.58.58,0,0,1-.56.58Z" style="opacity:0.1"></path></g><g id="freepik--Character--inject-3"><polygon points="195.4 410.18 189.49 410.09 187.79 396.39 193.7 396.48 195.4 410.18" style="fill:#ff8b7b"></polygon><polygon points="159.43 410.04 154.03 407.03 158.06 394.32 163.46 397.33 159.43 410.04" style="fill:#ff8b7b"></polygon><path d="M153.52,406.32l6.26,3.56a.5.5,0,0,1,.24.59l-1.58,5.15a.86.86,0,0,1-1.27.48c-2-1.17-3.4-2.13-5.94-3.57-1.56-.88-6.36-3.39-8.51-4.61s-1.23-3.52-.24-3.21c4.45,1.38,8.11,1.88,10,1.46A1.45,1.45,0,0,1,153.52,406.32Z" style="fill:#263238"></path><path d="M189.37,409.41l6.45.1a.51.51,0,0,1,.5.41l1.08,5.27a.85.85,0,0,1-.86,1c-2.33-.07-5.69-.26-8.61-.31-3.42-.05-6.38.09-10.39,0-2.42,0-3-2.5-2-2.71,4.64-.94,8.41-1,12.44-3.39A2.72,2.72,0,0,1,189.37,409.41Z" style="fill:#263238"></path><path d="M186.58,236.93A123.91,123.91,0,0,1,176,244.69c-1.84,1.19-3.71,2.37-5.7,3.45a38.24,38.24,0,0,1-6.53,2.93,17.18,17.18,0,0,1-2.06.52c-.38.07-.82.12-1.24.16a8.58,8.58,0,0,1-1.43,0,7.82,7.82,0,0,1-3-.87,8.07,8.07,0,0,1-2.34-1.88,11.21,11.21,0,0,1-2.18-4.15,20.68,20.68,0,0,1-.69-3.76,42.31,42.31,0,0,1,1.29-13.53l4.39.61A57.91,57.91,0,0,0,157.67,240a13.51,13.51,0,0,0,.79,2.4,3.7,3.7,0,0,0,.91,1.37c.12.08.17.07.18,0s0-.05,0-.07a8.49,8.49,0,0,0,1.48-.47,34.35,34.35,0,0,0,4.91-2.61c1.68-1,3.37-2.17,5-3.35,3.34-2.34,6.71-4.86,9.92-7.34Z" style="fill:#ff8b7b"></path><path d="M188.38,234.21c-2.69,6.07-13.06,12.35-18.81,15-1.7.78-1.48,3.06-2.49,2.07,0,0-4.43-8.13-4.43-9.79s1.47-.67,2.67-1.79c4.32-4,13.36-12.79,19-13.76C191.7,224.64,190.9,228.55,188.38,234.21Z" style="fill:#407BFF"></path><path d="M163.27,240.41c-.57-.84-2.93,1.36-3.68,2.28s1.31,4.26,1.93,6-.6,3.59,1.3,3.86c1,.14,3.85-.23,4.4-1C168.51,249.9,164.64,242.43,163.27,240.41Z" style="fill:#263238"></path><path d="M176.84,245.21c4.84-3.05,9.8-7.07,11.55-11,.11-.27.24-.52.34-.78l.1-1C182.26,233.55,177.8,240.19,176.84,245.21Z" style="opacity:0.2"></path><path d="M155.66,230l3.81-5.65-6.22-2.54s-3.52,4-1,7.49Z" style="fill:#ff8b7b"></path><polygon points="161.07 218.21 155.35 218.02 153.25 221.76 159.47 224.3 161.07 218.21" style="fill:#ff8b7b"></polygon><polygon points="187.79 396.39 188.67 403.45 194.58 403.55 193.7 396.49 187.79 396.39" style="opacity:0.2"></polygon><polygon points="163.46 397.33 158.06 394.32 155.99 400.88 161.38 403.89 163.46 397.33" style="opacity:0.2"></polygon><path d="M217.33,228.08c-6.37,22.44-5.08,46.25-5.66,51.07-4.62-.33-22-1.63-31.5-2.34-3-33.75,4.14-50.89,4.14-50.89s2-.39,4.78-.67c.86-.09,1.79-.17,2.76-.22.54,0,1.08-.05,1.63-.06a116.72,116.72,0,0,1,13.4,1c.84.1,1.69.23,2.52.36s1.52.27,2.23.41C214.84,227.38,217.33,228.08,217.33,228.08Z" style="fill:#407BFF"></path><path d="M193.48,225c-2.65,1.42-3.42,6.62,1.71,6.82s10.22-3.41,11.69-5.83Z" style="fill:#263238"></path><path d="M210.6,237.71c-.56,2.17.08,12.07,2.35,14.52.31-3.17.72-6.49,1.27-9.87Z" style="opacity:0.2"></path><path d="M206.67,210.79c-1.16,4.24-2.59,12.07.21,15.17-2.52,2.16-5.41,3.67-10.54,3.47s-4.34-2.7-2.86-4.46c4.9-.79,5-4.37,4.45-7.78Z" style="fill:#ff8b7b"></path><path d="M203.11,213.4l-5.18,3.79a14.26,14.26,0,0,1,.24,2.41c1.85-.13,4.53-2,4.86-3.87A6.52,6.52,0,0,0,203.11,213.4Z" style="opacity:0.2"></path><path d="M193.33,209.16s-3.62-5.09-2.56-9.07C192.13,195,200.33,201.24,193.33,209.16Z" style="fill:#263238"></path><path d="M207.67,204.34c-.8,5.81-1,9.25-4.13,12-4.77,4.18-11.77,1-12.73-5-.87-5.33.57-13.94,6.46-15.83A8,8,0,0,1,207.67,204.34Z" style="fill:#ff8b7b"></path><path d="M193.92,210.48c0,.89-.82,1.1-1.48,1.5a3.92,3.92,0,0,0-1.13,1.21s-.85-.28-.5-1.79S193.92,209.65,193.92,210.48Z" style="fill:#263238"></path><path d="M194.33,210.51c0,1.53,1.69,1.32,3,1.74a5.44,5.44,0,0,1,2.68,1.86,2.18,2.18,0,0,0-.37-2.34C198,209.62,194.33,209.68,194.33,210.51Z" style="fill:#263238"></path><path d="M203.18,199.09c-3.64,1.08-13.85,2.21-12.6-3,1.74-7.29,6.34-3.49,7-2.45,2.93-2.12,15.86-.27,13.28,3.92,2.81.43,4.44,3.49,2.42,5s-4.47,7.67-5.82,7.49a18.12,18.12,0,0,1-4.74-1.33L205.5,205S202.13,201.8,203.18,199.09Z" style="fill:#263238"></path><path d="M209.55,198.2c2-.49,3.87-.71,5.49.79C214.92,196.47,211.47,196.12,209.55,198.2Z" style="fill:#263238"></path><path d="M209.82,211a5.53,5.53,0,0,1-3.64,2.19c-1.94.28-2.65-1.51-1.9-3.2.67-1.53,2.49-3.51,4.33-3A2.51,2.51,0,0,1,209.82,211Z" style="fill:#ff8b7b"></path><path d="M186.47,402.06l10,.15s-5.77-39.51-4.87-57.89c.27-5.59-.63-13.41.85-21.79,1.87-10.57,2.77-14.78,5.18-28.13,1.72-9.52,3.25-16,3.25-16l-20.71-1.54s-6.77,47.61-6.57,65.64C173.81,361.19,186.47,402.06,186.47,402.06Z" style="fill:#407BFF"></path><path d="M186.47,402.06l10,.15s-5.77-39.51-4.87-57.89c.27-5.59-.63-13.41.85-21.79,1.87-10.57,2.77-14.78,5.18-28.13,1.72-9.52,3.25-16,3.25-16l-20.71-1.54s-6.77,47.61-6.57,65.64C173.81,361.19,186.47,402.06,186.47,402.06Z" style="opacity:0.6000000000000001"></path><path d="M192.45,322.53a71.29,71.29,0,0,0-.87,13.26c-1.72,4.86-3.22,9.47-4.27,13.57-1.83,7.17-4.73,18.05-7.55,28.5-3.07-12.24-6.06-26.39-6.15-35.41Z" style="opacity:0.2"></path><path d="M191.34,277.64s-14.88,37.6-20.52,54c-6.18,17.92-16.15,66.29-16.15,66.29l9.41,5.33s14.66-39.87,20.73-57.32c6.92-19.88,26-51.29,26.86-66.74Z" style="fill:#407BFF"></path><path d="M191.34,277.64s-14.88,37.6-20.52,54c-6.18,17.92-16.15,66.29-16.15,66.29l9.41,5.33s14.66-39.87,20.73-57.32c6.92-19.88,26-51.29,26.86-66.74Z" style="opacity:0.6000000000000001"></path><polygon points="153.43 397.45 164.51 403.74 166.39 400.43 154.12 393.19 153.43 397.45" style="fill:#407BFF"></polygon><polygon points="185.21 402.27 197.13 402.46 197.19 398.61 183.87 398.19 185.21 402.27" style="fill:#407BFF"></polygon><path d="M199.89,205.31c0,.48-.32.84-.63.82s-.53-.43-.49-.9.31-.84.62-.82S199.93,204.84,199.89,205.31Z" style="fill:#263238"></path><path d="M193.57,204.91c0,.48-.31.84-.62.82s-.54-.43-.5-.9.31-.84.62-.82S193.61,204.44,193.57,204.91Z" style="fill:#263238"></path><path d="M195,205.28a17,17,0,0,1-2.58,3.89,2.75,2.75,0,0,0,2.24.6Z" style="fill:#ff5652"></path><path d="M194.48,212.83a3.89,3.89,0,0,0,2.8-1.36.14.14,0,0,0,0-.2.14.14,0,0,0-.19,0,3.78,3.78,0,0,1-3.18,1.24.15.15,0,0,0-.15.13.13.13,0,0,0,.13.15A4.32,4.32,0,0,0,194.48,212.83Z" style="fill:#263238"></path><path d="M200.89,203.7a.33.33,0,0,0,.13,0,.28.28,0,0,0,.08-.39,2.77,2.77,0,0,0-2.18-1.32.27.27,0,0,0-.28.28.28.28,0,0,0,.28.28h0a2.22,2.22,0,0,1,1.71,1.06A.28.28,0,0,0,200.89,203.7Z" style="fill:#263238"></path><path d="M191.23,202.8a.3.3,0,0,0,.25-.1,2.21,2.21,0,0,1,1.85-.81.28.28,0,0,0,.31-.24.28.28,0,0,0-.24-.32,2.78,2.78,0,0,0-2.34,1,.28.28,0,0,0,0,.4A.34.34,0,0,0,191.23,202.8Z" style="fill:#263238"></path><path d="M151.31,406.26a6.38,6.38,0,0,0,1.45.57.12.12,0,0,0,.14,0,.16.16,0,0,0,0-.16c-.12-.22-1.2-2.18-1.94-2.21a.45.45,0,0,0-.4.23.82.82,0,0,0-.11.78A1.82,1.82,0,0,0,151.31,406.26Zm1.19.2c-1-.32-1.62-.73-1.77-1.12a.57.57,0,0,1,.08-.54.18.18,0,0,1,.16-.1C151.35,404.72,152.05,405.69,152.5,406.46Z" style="fill:#407BFF"></path><path d="M152.73,406.82l.07,0a.13.13,0,0,0,.12-.08c0-.07.75-1.62.43-2.44a.78.78,0,0,0-.43-.46h0a.48.48,0,0,0-.57.1c-.43.52,0,2.22.33,2.81A.12.12,0,0,0,152.73,406.82Zm.14-2.67a.5.5,0,0,1,.22.27,3.37,3.37,0,0,1-.31,1.95c-.3-.7-.47-1.92-.21-2.22,0,0,.07-.1.24,0h0Z" style="fill:#407BFF"></path><path d="M188.78,410.21a.12.12,0,0,0,.09-.11.12.12,0,0,0-.07-.14c-.26-.15-2.62-1.39-3.34-1a.46.46,0,0,0-.24.37h0a.82.82,0,0,0,.25.69c.64.58,2.34.37,3.29.2Zm-3.14-1a5.76,5.76,0,0,1,2.66.82,3.76,3.76,0,0,1-2.64-.2.52.52,0,0,1-.16-.45.16.16,0,0,1,.09-.15Z" style="fill:#407BFF"></path><path d="M188.78,410.21h0a.16.16,0,0,0,.06-.13,4,4,0,0,0-.89-2.29,1,1,0,0,0-.77-.25h0c-.38,0-.5.22-.52.38-.12.67,1.27,2,2,2.3A.17.17,0,0,0,188.78,410.21Zm-1.68-2.38.15,0h0a.73.73,0,0,1,.56.18,3.23,3.23,0,0,1,.75,1.84c-.72-.45-1.66-1.47-1.59-1.87A.17.17,0,0,1,187.1,407.83Zm.13-.16Z" style="fill:#407BFF"></path><path d="M218.79,231.65c1.3,2.42,2.42,4.81,3.58,7.24s2.17,4.91,3.19,7.41,1.94,5,2.79,7.68l.61,2,.54,2c.18.68.32,1.4.48,2.09l.12.54.11.72a13.07,13.07,0,0,1,.13,1.32,27.48,27.48,0,0,1-.19,4.53c-.16,1.42-.36,2.79-.6,4.14-.49,2.7-1.09,5.33-1.76,7.93A156.18,156.18,0,0,1,223,294.55l-4.27-1.18c.89-5.12,1.75-10.31,2.51-15.42.37-2.55.71-5.1.94-7.62.12-1.25.21-2.49.25-3.7a22.51,22.51,0,0,0-.09-3.35c0-.21-.05-.49-.1-.63l-.06-.26-.12-.42c-.18-.57-.32-1.14-.52-1.72l-.59-1.74-.65-1.75c-.89-2.35-1.89-4.69-2.9-7s-2.13-4.68-3.24-7-2.25-4.68-3.35-6.94Z" style="fill:#ff8b7b"></path><path d="M217.32,228.09c4.24,1.32,9.85,18.9,12.07,26.38,1.41,1.27.7,3.59.7,3.59l-8.63,3.81c-2-1-3.24-3.09-2.49-4.12-4.52-8.53-8.07-14.91-9.78-20C206.66,230.21,210.8,226,217.32,228.09Z" style="fill:#407BFF"></path><path d="M219.35,259.78c-.87.52,1.8,3.26,2.66,4.06s3.73-1.29,5.52-1.81,3.55.82,3.93-1.06c.21-1,0-3.86-.69-4.46C229.14,255.13,221.45,258.54,219.35,259.78Z" style="fill:#263238"></path><path d="M219.85,290.85l-4.61,3.84,5.74,4.14s3.77-4,2.08-6.38Z" style="fill:#ff8b7b"></path><polygon points="212.61 300.06 218.29 302.82 220.98 298.83 215.24 294.69 212.61 300.06" style="fill:#ff8b7b"></polygon></g></svg>